<?xml version="1.0" encoding="UTF-8" standalone="no"?><svg xmlns="http://www.w3.org/2000/svg" xmlns:xlink="http://www.w3.org/1999/xlink" contentStyleType="text/css" height="10293.75px" preserveAspectRatio="none" style="width:5625px;height:10293px;background:#FFFFFF;" version="1.1" viewBox="0 0 5625 10293" width="5625px" zoomAndPan="magnify"><defs/><g><text fill="#000000" font-family="sans-serif" font-size="93.75" font-weight="bold" lengthAdjust="spacing" textLength="1345.3125" x="2132.8125" y="167.6331">System Process Flow Diagram</text><rect fill="#ADD8E6" height="9949.7314" style="stroke:#181818;stroke-width:2.34375;" width="1544.5313" x="4.6875" y="244.4824"/><text fill="#000000" font-family="sans-serif" font-size="65.625" font-weight="bold" lengthAdjust="spacing" textLength="810.9375" x="371.4844" y="312.6068">Console Application (CA)</text><rect fill="#90EE90" height="9949.7314" style="stroke:#181818;stroke-width:2.34375;" width="1621.875" x="1558.5938" y="244.4824"/><text fill="#000000" font-family="sans-serif" font-size="65.625" font-weight="bold" lengthAdjust="spacing" textLength="778.125" x="1980.4688" y="312.6068">Account Consumer (AC)</text><rect fill="#FFFFE0" height="9949.7314" style="stroke:#181818;stroke-width:2.34375;" width="1975.7813" x="3189.8438" y="244.4824"/><text fill="#000000" font-family="sans-serif" font-size="65.625" font-weight="bold" lengthAdjust="spacing" textLength="843.75" x="3755.8594" y="312.6068">Migration Consumer (MC)</text><rect fill="#FFFFFF" height="9416.0156" style="stroke:#181818;stroke-width:4.6875;" width="46.875" x="178.125" y="557.2998"/><rect fill="#FFFFFF" height="230.7129" style="stroke:#181818;stroke-width:4.6875;" width="46.875" x="670.3125" y="667.9688"/><rect fill="#FFFFFF" height="572.0947" style="stroke:#181818;stroke-width:4.6875;" width="46.875" x="2203.125" y="1784.0332"/><rect fill="#FFFFFF" height="6348.2666" style="stroke:#181818;stroke-width:4.6875;" width="46.875" x="3986.7188" y="3324.0234"/><rect fill="#FFFFFF" height="5858.7158" style="stroke:#181818;stroke-width:4.6875;" width="46.875" x="4010.1563" y="3813.5742"/><line style="stroke:#181818;stroke-width:2.34375;stroke-dasharray:5.0,5.0;" x1="201.5625" x2="201.5625" y1="510.4248" y2="10015.5029"/><line style="stroke:#181818;stroke-width:2.34375;stroke-dasharray:5.0,5.0;" x1="691.4063" x2="691.4063" y1="510.4248" y2="10015.5029"/><line style="stroke:#181818;stroke-width:2.34375;stroke-dasharray:5.0,5.0;" x1="1291.4063" x2="1291.4063" y1="510.4248" y2="10015.5029"/><line style="stroke:#181818;stroke-width:2.34375;stroke-dasharray:5.0,5.0;" x1="1755.4688" x2="1755.4688" y1="510.4248" y2="10015.5029"/><line style="stroke:#181818;stroke-width:2.34375;stroke-dasharray:5.0,5.0;" x1="2224.2188" x2="2224.2188" y1="510.4248" y2="10015.5029"/><line style="stroke:#181818;stroke-width:2.34375;stroke-dasharray:5.0,5.0;" x1="2922.6563" x2="2922.6563" y1="510.4248" y2="10015.5029"/><line style="stroke:#181818;stroke-width:2.34375;stroke-dasharray:5.0,5.0;" x1="3391.4063" x2="3391.4063" y1="510.4248" y2="10015.5029"/><line style="stroke:#181818;stroke-width:2.34375;stroke-dasharray:5.0,5.0;" x1="4007.8125" x2="4007.8125" y1="510.4248" y2="10015.5029"/><line style="stroke:#181818;stroke-width:2.34375;stroke-dasharray:5.0,5.0;" x1="4903.125" x2="4903.125" y1="510.4248" y2="10015.5029"/><rect fill="#E2E2F0" height="159.9609" rx="11.7188" ry="11.7188" style="stroke:#181818;stroke-width:2.34375;" width="356.25" x="23.4375" y="345.7764"/><text fill="#000000" font-family="sans-serif" font-size="75" lengthAdjust="spacing" textLength="290.625" x="56.25" y="456.4453">CA Initial</text><rect fill="#E2E2F0" height="159.9609" rx="11.7188" ry="11.7188" style="stroke:#181818;stroke-width:2.34375;" width="356.25" x="23.4375" y="10010.8154"/><text fill="#000000" font-family="sans-serif" font-size="75" lengthAdjust="spacing" textLength="290.625" x="56.25" y="10121.4844">CA Initial</text><rect fill="#E2E2F0" height="159.9609" rx="11.7188" ry="11.7188" style="stroke:#181818;stroke-width:2.34375;" width="492.1875" x="447.6563" y="345.7764"/><text fill="#000000" font-family="sans-serif" font-size="75" lengthAdjust="spacing" textLength="426.5625" x="480.4688" y="456.4453">CA Transient</text><rect fill="#E2E2F0" height="159.9609" rx="11.7188" ry="11.7188" style="stroke:#181818;stroke-width:2.34375;" width="492.1875" x="447.6563" y="10010.8154"/><text fill="#000000" font-family="sans-serif" font-size="75" lengthAdjust="spacing" textLength="426.5625" x="480.4688" y="10121.4844">CA Transient</text><rect fill="#E2E2F0" height="159.9609" rx="11.7188" ry="11.7188" style="stroke:#181818;stroke-width:2.34375;" width="473.4375" x="1057.0313" y="345.7764"/><text fill="#000000" font-family="sans-serif" font-size="75" lengthAdjust="spacing" textLength="407.8125" x="1089.8438" y="456.4453">CA Terminal</text><rect fill="#E2E2F0" height="159.9609" rx="11.7188" ry="11.7188" style="stroke:#181818;stroke-width:2.34375;" width="473.4375" x="1057.0313" y="10010.8154"/><text fill="#000000" font-family="sans-serif" font-size="75" lengthAdjust="spacing" textLength="407.8125" x="1089.8438" y="10121.4844">CA Terminal</text><rect fill="#E2E2F0" height="159.9609" rx="11.7188" ry="11.7188" style="stroke:#181818;stroke-width:2.34375;" width="356.25" x="1577.3438" y="345.7764"/><text fill="#000000" font-family="sans-serif" font-size="75" lengthAdjust="spacing" textLength="290.625" x="1610.1563" y="456.4453">AC Initial</text><rect fill="#E2E2F0" height="159.9609" rx="11.7188" ry="11.7188" style="stroke:#181818;stroke-width:2.34375;" width="356.25" x="1577.3438" y="10010.8154"/><text fill="#000000" font-family="sans-serif" font-size="75" lengthAdjust="spacing" textLength="290.625" x="1610.1563" y="10121.4844">AC Initial</text><rect fill="#E2E2F0" height="159.9609" rx="11.7188" ry="11.7188" style="stroke:#181818;stroke-width:2.34375;" width="492.1875" x="1980.4688" y="345.7764"/><text fill="#000000" font-family="sans-serif" font-size="75" lengthAdjust="spacing" textLength="426.5625" x="2013.2813" y="456.4453">AC Transient</text><rect fill="#E2E2F0" height="159.9609" rx="11.7188" ry="11.7188" style="stroke:#181818;stroke-width:2.34375;" width="492.1875" x="1980.4688" y="10010.8154"/><text fill="#000000" font-family="sans-serif" font-size="75" lengthAdjust="spacing" textLength="426.5625" x="2013.2813" y="10121.4844">AC Transient</text><rect fill="#E2E2F0" height="159.9609" rx="11.7188" ry="11.7188" style="stroke:#181818;stroke-width:2.34375;" width="473.4375" x="2688.2813" y="345.7764"/><text fill="#000000" font-family="sans-serif" font-size="75" lengthAdjust="spacing" textLength="407.8125" x="2721.0938" y="456.4453">AC Terminal</text><rect fill="#E2E2F0" height="159.9609" rx="11.7188" ry="11.7188" style="stroke:#181818;stroke-width:2.34375;" width="473.4375" x="2688.2813" y="10010.8154"/><text fill="#000000" font-family="sans-serif" font-size="75" lengthAdjust="spacing" textLength="407.8125" x="2721.0938" y="10121.4844">AC Terminal</text><rect fill="#E2E2F0" height="159.9609" rx="11.7188" ry="11.7188" style="stroke:#181818;stroke-width:2.34375;" width="365.625" x="3208.5938" y="345.7764"/><text fill="#000000" font-family="sans-serif" font-size="75" lengthAdjust="spacing" textLength="300" x="3241.4063" y="456.4453">MC Initial</text><rect fill="#E2E2F0" height="159.9609" rx="11.7188" ry="11.7188" style="stroke:#181818;stroke-width:2.34375;" width="365.625" x="3208.5938" y="10010.8154"/><text fill="#000000" font-family="sans-serif" font-size="75" lengthAdjust="spacing" textLength="300" x="3241.4063" y="10121.4844">MC Initial</text><rect fill="#E2E2F0" height="159.9609" rx="11.7188" ry="11.7188" style="stroke:#181818;stroke-width:2.34375;" width="501.5625" x="3759.375" y="345.7764"/><text fill="#000000" font-family="sans-serif" font-size="75" lengthAdjust="spacing" textLength="435.9375" x="3792.1875" y="456.4453">MC Transient</text><rect fill="#E2E2F0" height="159.9609" rx="11.7188" ry="11.7188" style="stroke:#181818;stroke-width:2.34375;" width="501.5625" x="3759.375" y="10010.8154"/><text fill="#000000" font-family="sans-serif" font-size="75" lengthAdjust="spacing" textLength="435.9375" x="3792.1875" y="10121.4844">MC Transient</text><rect fill="#E2E2F0" height="159.9609" rx="11.7188" ry="11.7188" style="stroke:#181818;stroke-width:2.34375;" width="482.8125" x="4664.0625" y="345.7764"/><text fill="#000000" font-family="sans-serif" font-size="75" lengthAdjust="spacing" textLength="417.1875" x="4696.875" y="456.4453">MC Terminal</text><rect fill="#E2E2F0" height="159.9609" rx="11.7188" ry="11.7188" style="stroke:#181818;stroke-width:2.34375;" width="482.8125" x="4664.0625" y="10010.8154"/><text fill="#000000" font-family="sans-serif" font-size="75" lengthAdjust="spacing" textLength="417.1875" x="4696.875" y="10121.4844">MC Terminal</text><rect fill="#FFFFFF" height="9416.0156" style="stroke:#181818;stroke-width:4.6875;" width="46.875" x="178.125" y="557.2998"/><rect fill="#FFFFFF" height="230.7129" style="stroke:#181818;stroke-width:4.6875;" width="46.875" x="670.3125" y="667.9688"/><rect fill="#FFFFFF" height="572.0947" style="stroke:#181818;stroke-width:4.6875;" width="46.875" x="2203.125" y="1784.0332"/><rect fill="#FFFFFF" height="6348.2666" style="stroke:#181818;stroke-width:4.6875;" width="46.875" x="3986.7188" y="3324.0234"/><rect fill="#FFFFFF" height="5858.7158" style="stroke:#181818;stroke-width:4.6875;" width="46.875" x="4010.1563" y="3813.5742"/><polygon fill="#181818" points="614.0625,649.2188,660.9375,667.9688,614.0625,686.7188,632.8125,667.9688" style="stroke:#181818;stroke-width:4.6875;"/><line style="stroke:#181818;stroke-width:9.375;" x1="225" x2="642.1875" y1="667.9688" y2="667.9688"/><text fill="#000000" font-family="sans-serif" font-size="65.625" lengthAdjust="spacing" textLength="121.875" x="257.8125" y="644.1742">ETL</text><text fill="#000000" font-family="sans-serif" font-size="65.625" lengthAdjust="spacing" textLength="18.75" x="379.6875" y="644.1742"> </text><text fill="#000000" font-family="sans-serif" font-size="65.625" lengthAdjust="spacing" textLength="215.625" x="398.4375" y="644.1742">Started</text><polygon fill="#181818" points="2170.3125,879.9316,2217.1875,898.6816,2170.3125,917.4316,2189.0625,898.6816" style="stroke:#181818;stroke-width:4.6875;"/><line style="stroke:#181818;stroke-width:9.375;" x1="693.75" x2="2198.4375" y1="898.6816" y2="898.6816"/><text fill="#000000" font-family="sans-serif" font-size="65.625" lengthAdjust="spacing" textLength="225" x="726.5625" y="792.3431">"CA_00</text><text fill="#000000" font-family="sans-serif" font-size="65.625" lengthAdjust="spacing" textLength="18.75" x="726.5625" y="874.8871"> </text><text fill="#000000" font-family="sans-serif" font-size="65.625" lengthAdjust="spacing" textLength="539.0625" x="745.3125" y="874.8871">_ETL_Completed"</text><polygon fill="#181818" points="1237.5,1110.6445,1284.375,1129.3945,1237.5,1148.1445,1256.25,1129.3945" style="stroke:#181818;stroke-width:4.6875;"/><line style="stroke:#181818;stroke-width:9.375;" x1="693.75" x2="1265.625" y1="1129.3945" y2="1129.3945"/><text fill="#000000" font-family="sans-serif" font-size="65.625" lengthAdjust="spacing" textLength="225" x="726.5625" y="1023.056">"CA_01</text><text fill="#000000" font-family="sans-serif" font-size="65.625" lengthAdjust="spacing" textLength="18.75" x="726.5625" y="1105.6"> </text><text fill="#000000" font-family="sans-serif" font-size="65.625" lengthAdjust="spacing" textLength="403.125" x="745.3125" y="1105.6">_ETL_Failed"</text><path d="M1317.1875,1190.332 L1317.1875,1480.957 L1875,1480.957 L1875,1237.207 L1828.125,1190.332 L1317.1875,1190.332 " fill="#FEFFDD" style="stroke:#181818;stroke-width:2.34375;"/><path d="M1828.125,1190.332 L1828.125,1237.207 L1875,1237.207 L1828.125,1190.332 " fill="#FEFFDD" style="stroke:#181818;stroke-width:2.34375;"/><text fill="#FF0000" font-family="sans-serif" font-size="65.625" font-weight="bold" lengthAdjust="spacing" textLength="295.3125" x="1345.3125" y="1281.8939">FAILURE:</text><text fill="#000000" font-family="sans-serif" font-size="65.625" lengthAdjust="spacing" textLength="18.75" x="1640.625" y="1281.8939"> </text><text fill="#000000" font-family="sans-serif" font-size="65.625" lengthAdjust="spacing" textLength="421.875" x="1364.0625" y="1364.4379">ETL execution</text><text fill="#000000" font-family="sans-serif" font-size="65.625" lengthAdjust="spacing" textLength="159.375" x="1364.0625" y="1446.9818">failed</text><polygon fill="#181818" points="1237.5,1765.2832,1284.375,1784.0332,1237.5,1802.7832,1256.25,1784.0332" style="stroke:#181818;stroke-width:4.6875;"/><line style="stroke:#181818;stroke-width:9.375;" x1="693.75" x2="1265.625" y1="1784.0332" y2="1784.0332"/><text fill="#000000" font-family="sans-serif" font-size="65.625" lengthAdjust="spacing" textLength="262.5" x="726.5625" y="1595.1508">"CA_02_</text><text fill="#000000" font-family="sans-serif" font-size="65.625" lengthAdjust="spacing" textLength="18.75" x="726.5625" y="1677.6947"> </text><text fill="#000000" font-family="sans-serif" font-size="65.625" lengthAdjust="spacing" textLength="468.75" x="745.3125" y="1677.6947">AccountNumber</text><text fill="#000000" font-family="sans-serif" font-size="65.625" lengthAdjust="spacing" textLength="18.75" x="726.5625" y="1760.2386"> </text><text fill="#000000" font-family="sans-serif" font-size="65.625" lengthAdjust="spacing" textLength="403.125" x="745.3125" y="1760.2386">Missing_ETL"</text><path d="M1317.1875,1844.9707 L1317.1875,2135.5957 L1940.625,2135.5957 L1940.625,1891.8457 L1893.75,1844.9707 L1317.1875,1844.9707 " fill="#FEFFDD" style="stroke:#181818;stroke-width:2.34375;"/><path d="M1893.75,1844.9707 L1893.75,1891.8457 L1940.625,1891.8457 L1893.75,1844.9707 " fill="#FEFFDD" style="stroke:#181818;stroke-width:2.34375;"/><text fill="#FF0000" font-family="sans-serif" font-size="65.625" font-weight="bold" lengthAdjust="spacing" textLength="295.3125" x="1345.3125" y="1936.5326">FAILURE:</text><text fill="#000000" font-family="sans-serif" font-size="65.625" lengthAdjust="spacing" textLength="18.75" x="1640.625" y="1936.5326"> </text><text fill="#000000" font-family="sans-serif" font-size="65.625" lengthAdjust="spacing" textLength="487.5" x="1364.0625" y="2019.0765">WebSec missing</text><text fill="#000000" font-family="sans-serif" font-size="65.625" lengthAdjust="spacing" textLength="360.9375" x="1364.0625" y="2101.6205">account info</text><polygon fill="#181818" points="3953.9063,2337.3779,4000.7813,2356.1279,3953.9063,2374.8779,3972.6563,2356.1279" style="stroke:#181818;stroke-width:4.6875;"/><line style="stroke:#181818;stroke-width:9.375;" x1="2226.5625" x2="3982.0313" y1="2356.1279" y2="2356.1279"/><text fill="#000000" font-family="sans-serif" font-size="65.625" lengthAdjust="spacing" textLength="262.5" x="2259.375" y="2249.7894">"AC_02_</text><text fill="#000000" font-family="sans-serif" font-size="65.625" lengthAdjust="spacing" textLength="18.75" x="2259.375" y="2332.3334"> </text><text fill="#000000" font-family="sans-serif" font-size="65.625" lengthAdjust="spacing" textLength="618.75" x="2278.125" y="2332.3334">_OldActivityCleaned"</text><polygon fill="#181818" points="2868.75,2650.6348,2915.625,2669.3848,2868.75,2688.1348,2887.5,2669.3848" style="stroke:#181818;stroke-width:4.6875;"/><line style="stroke:#181818;stroke-width:9.375;" x1="1755.4688" x2="2896.875" y1="2669.3848" y2="2669.3848"/><text fill="#000000" font-family="sans-serif" font-size="65.625" lengthAdjust="spacing" textLength="262.5" x="1788.2813" y="2480.5023">"AC_01_</text><text fill="#000000" font-family="sans-serif" font-size="65.625" lengthAdjust="spacing" textLength="18.75" x="1788.2813" y="2563.0463"> </text><text fill="#000000" font-family="sans-serif" font-size="65.625" lengthAdjust="spacing" textLength="567.1875" x="1807.0313" y="2563.0463">AccountNotFound_</text><text fill="#000000" font-family="sans-serif" font-size="65.625" lengthAdjust="spacing" textLength="18.75" x="1788.2813" y="2645.5902"> </text><text fill="#000000" font-family="sans-serif" font-size="65.625" lengthAdjust="spacing" textLength="656.25" x="1807.0313" y="2645.5902">PLQuoteStorageRest"</text><path d="M2948.4375,2730.3223 L2948.4375,2941.2598 L3731.25,2941.2598 L3731.25,2777.1973 L3684.375,2730.3223 L2948.4375,2730.3223 " fill="#FEFFDD" style="stroke:#181818;stroke-width:2.34375;"/><path d="M3684.375,2730.3223 L3684.375,2777.1973 L3731.25,2777.1973 L3684.375,2730.3223 " fill="#FEFFDD" style="stroke:#181818;stroke-width:2.34375;"/><text fill="#FF0000" font-family="sans-serif" font-size="65.625" font-weight="bold" lengthAdjust="spacing" textLength="295.3125" x="2976.5625" y="2821.8842">FAILURE:</text><text fill="#000000" font-family="sans-serif" font-size="65.625" lengthAdjust="spacing" textLength="351.5625" x="3290.625" y="2821.8842">Account not</text><text fill="#000000" font-family="sans-serif" font-size="65.625" lengthAdjust="spacing" textLength="482.8125" x="2995.3125" y="2904.4281">found in storage</text><polygon fill="#181818" points="2868.75,3305.2734,2915.625,3324.0234,2868.75,3342.7734,2887.5,3324.0234" style="stroke:#181818;stroke-width:4.6875;"/><line style="stroke:#181818;stroke-width:9.375;" x1="2226.5625" x2="2896.875" y1="3324.0234" y2="3324.0234"/><text fill="#000000" font-family="sans-serif" font-size="65.625" lengthAdjust="spacing" textLength="262.5" x="2259.375" y="3052.597">"AC_03_</text><text fill="#000000" font-family="sans-serif" font-size="65.625" lengthAdjust="spacing" textLength="18.75" x="2259.375" y="3135.141"> </text><text fill="#000000" font-family="sans-serif" font-size="65.625" lengthAdjust="spacing" textLength="567.1875" x="2278.125" y="3135.141">AccountNotFound_</text><text fill="#000000" font-family="sans-serif" font-size="65.625" lengthAdjust="spacing" textLength="18.75" x="2259.375" y="3217.6849"> </text><text fill="#000000" font-family="sans-serif" font-size="65.625" lengthAdjust="spacing" textLength="473.4375" x="2278.125" y="3217.6849">CoreFramework</text><text fill="#000000" font-family="sans-serif" font-size="65.625" lengthAdjust="spacing" textLength="18.75" x="2259.375" y="3300.2289"> </text><text fill="#000000" font-family="sans-serif" font-size="65.625" lengthAdjust="spacing" textLength="314.0625" x="2278.125" y="3300.2289">Insurance"</text><path d="M2948.4375,3384.9609 L2948.4375,3595.8984 L3618.75,3595.8984 L3618.75,3431.8359 L3571.875,3384.9609 L2948.4375,3384.9609 " fill="#FEFFDD" style="stroke:#181818;stroke-width:2.34375;"/><path d="M3571.875,3384.9609 L3571.875,3431.8359 L3618.75,3431.8359 L3571.875,3384.9609 " fill="#FEFFDD" style="stroke:#181818;stroke-width:2.34375;"/><text fill="#FF0000" font-family="sans-serif" font-size="65.625" font-weight="bold" lengthAdjust="spacing" textLength="295.3125" x="2976.5625" y="3476.5228">FAILURE:</text><text fill="#000000" font-family="sans-serif" font-size="65.625" lengthAdjust="spacing" textLength="239.0625" x="3290.625" y="3476.5228">Account</text><text fill="#000000" font-family="sans-serif" font-size="65.625" lengthAdjust="spacing" textLength="501.5625" x="2995.3125" y="3559.0668">not found in core</text><polygon fill="#181818" points="3953.9063,3794.8242,4000.7813,3813.5742,3953.9063,3832.3242,3972.6563,3813.5742" style="stroke:#181818;stroke-width:4.6875;"/><line style="stroke:#181818;stroke-width:9.375;" x1="3391.4063" x2="3982.0313" y1="3813.5742" y2="3813.5742"/><text fill="#000000" font-family="sans-serif" font-size="65.625" lengthAdjust="spacing" textLength="271.875" x="3424.2188" y="3707.2357">"MC_01_</text><text fill="#000000" font-family="sans-serif" font-size="65.625" lengthAdjust="spacing" textLength="18.75" x="3424.2188" y="3789.7797"> </text><text fill="#000000" font-family="sans-serif" font-size="65.625" lengthAdjust="spacing" textLength="464.0625" x="3442.9688" y="3789.7797">ETLCompleted"</text><polygon fill="#181818" points="4849.2188,4025.5371,4896.0938,4044.2871,4849.2188,4063.0371,4867.9688,4044.2871" style="stroke:#181818;stroke-width:4.6875;"/><line style="stroke:#181818;stroke-width:9.375;" x1="4057.0313" x2="4877.3438" y1="4044.2871" y2="4044.2871"/><text fill="#000000" font-family="sans-serif" font-size="65.625" lengthAdjust="spacing" textLength="271.875" x="4089.8438" y="3937.9486">"MC_02_</text><text fill="#000000" font-family="sans-serif" font-size="65.625" lengthAdjust="spacing" textLength="18.75" x="4089.8438" y="4020.4926"> </text><text fill="#000000" font-family="sans-serif" font-size="65.625" lengthAdjust="spacing" textLength="717.1875" x="4108.5938" y="4020.4926">PolicyJsonExtractFailed"</text><path d="M4926.5625,4105.2246 L4926.5625,4395.8496 L5418.75,4395.8496 L5418.75,4152.0996 L5371.875,4105.2246 L4926.5625,4105.2246 " fill="#FEFFDD" style="stroke:#181818;stroke-width:2.34375;"/><path d="M5371.875,4105.2246 L5371.875,4152.0996 L5418.75,4152.0996 L5371.875,4105.2246 " fill="#FEFFDD" style="stroke:#181818;stroke-width:2.34375;"/><text fill="#FF0000" font-family="sans-serif" font-size="65.625" font-weight="bold" lengthAdjust="spacing" textLength="295.3125" x="4954.6875" y="4196.7865">FAILURE:</text><text fill="#000000" font-family="sans-serif" font-size="65.625" lengthAdjust="spacing" textLength="18.75" x="5250" y="4196.7865"> </text><text fill="#000000" font-family="sans-serif" font-size="65.625" lengthAdjust="spacing" textLength="267.1875" x="4973.4375" y="4279.3304">JSON file</text><text fill="#000000" font-family="sans-serif" font-size="65.625" lengthAdjust="spacing" textLength="375" x="4973.4375" y="4361.8744">extract failed</text><line style="stroke:#181818;stroke-width:9.375;" x1="4057.0313" x2="4253.9063" y1="4616.3818" y2="4616.3818"/><line style="stroke:#181818;stroke-width:9.375;" x1="4253.9063" x2="4253.9063" y1="4616.3818" y2="4677.3193"/><line style="stroke:#181818;stroke-width:9.375;" x1="4061.7188" x2="4253.9063" y1="4677.3193" y2="4677.3193"/><polygon fill="#181818" points="4108.5938,4658.5693,4061.7188,4677.3193,4108.5938,4696.0693,4089.8438,4677.3193" style="stroke:#181818;stroke-width:4.6875;"/><text fill="#000000" font-family="sans-serif" font-size="65.625" lengthAdjust="spacing" textLength="271.875" x="4089.8438" y="4510.0433">"MC_03_</text><text fill="#000000" font-family="sans-serif" font-size="65.625" lengthAdjust="spacing" textLength="18.75" x="4089.8438" y="4592.5873"> </text><text fill="#000000" font-family="sans-serif" font-size="65.625" lengthAdjust="spacing" textLength="609.375" x="4108.5938" y="4592.5873">PolicyJsonExtracted"</text><polygon fill="#181818" points="4849.2188,4889.2822,4896.0938,4908.0322,4849.2188,4926.7822,4867.9688,4908.0322" style="stroke:#181818;stroke-width:4.6875;"/><line style="stroke:#181818;stroke-width:9.375;" x1="4057.0313" x2="4877.3438" y1="4908.0322" y2="4908.0322"/><text fill="#000000" font-family="sans-serif" font-size="65.625" lengthAdjust="spacing" textLength="248.4375" x="4089.8438" y="4801.6937">MC_05_</text><text fill="#000000" font-family="sans-serif" font-size="65.625" lengthAdjust="spacing" textLength="18.75" x="4089.8438" y="4884.2377"> </text><text fill="#000000" font-family="sans-serif" font-size="65.625" lengthAdjust="spacing" textLength="576.5625" x="4108.5938" y="4884.2377">ValidationException</text><path d="M4926.5625,4968.9697 L4926.5625,5179.9072 L5531.25,5179.9072 L5531.25,5015.8447 L5484.375,4968.9697 L4926.5625,4968.9697 " fill="#FEFFDD" style="stroke:#181818;stroke-width:2.34375;"/><path d="M5484.375,4968.9697 L5484.375,5015.8447 L5531.25,5015.8447 L5484.375,4968.9697 " fill="#FEFFDD" style="stroke:#181818;stroke-width:2.34375;"/><text fill="#FF0000" font-family="sans-serif" font-size="65.625" font-weight="bold" lengthAdjust="spacing" textLength="295.3125" x="4954.6875" y="5060.5316">FAILURE:</text><text fill="#000000" font-family="sans-serif" font-size="65.625" lengthAdjust="spacing" textLength="18.75" x="5250" y="5060.5316"> </text><text fill="#000000" font-family="sans-serif" font-size="65.625" lengthAdjust="spacing" textLength="487.5" x="4973.4375" y="5143.0756">Validation status</text><line style="stroke:#181818;stroke-width:9.375;" x1="4057.0313" x2="4253.9063" y1="5397.583" y2="5397.583"/><line style="stroke:#181818;stroke-width:9.375;" x1="4253.9063" x2="4253.9063" y1="5397.583" y2="5458.5205"/><line style="stroke:#181818;stroke-width:9.375;" x1="4061.7188" x2="4253.9063" y1="5458.5205" y2="5458.5205"/><polygon fill="#181818" points="4108.5938,5439.7705,4061.7188,5458.5205,4108.5938,5477.2705,4089.8438,5458.5205" style="stroke:#181818;stroke-width:4.6875;"/><text fill="#000000" font-family="sans-serif" font-size="65.625" lengthAdjust="spacing" textLength="271.875" x="4089.8438" y="5291.2445">"MC_04_</text><text fill="#000000" font-family="sans-serif" font-size="65.625" lengthAdjust="spacing" textLength="18.75" x="4089.8438" y="5373.7885"> </text><text fill="#000000" font-family="sans-serif" font-size="65.625" lengthAdjust="spacing" textLength="660.9375" x="4108.5938" y="5373.7885">PolicyActivityAdjusted"</text><line style="stroke:#181818;stroke-width:9.375;" x1="4057.0313" x2="4253.9063" y1="5689.2334" y2="5689.2334"/><line style="stroke:#181818;stroke-width:9.375;" x1="4253.9063" x2="4253.9063" y1="5689.2334" y2="5750.1709"/><line style="stroke:#181818;stroke-width:9.375;" x1="4061.7188" x2="4253.9063" y1="5750.1709" y2="5750.1709"/><polygon fill="#181818" points="4108.5938,5731.4209,4061.7188,5750.1709,4108.5938,5768.9209,4089.8438,5750.1709" style="stroke:#181818;stroke-width:4.6875;"/><text fill="#000000" font-family="sans-serif" font-size="65.625" lengthAdjust="spacing" textLength="271.875" x="4089.8438" y="5582.8949">"MC_06_</text><text fill="#000000" font-family="sans-serif" font-size="65.625" lengthAdjust="spacing" textLength="18.75" x="4089.8438" y="5665.4388"> </text><text fill="#000000" font-family="sans-serif" font-size="65.625" lengthAdjust="spacing" textLength="642.1875" x="4108.5938" y="5665.4388">PolicyActivityCreated"</text><polygon fill="#181818" points="4849.2188,5962.1338,4896.0938,5980.8838,4849.2188,5999.6338,4867.9688,5980.8838" style="stroke:#181818;stroke-width:4.6875;"/><line style="stroke:#181818;stroke-width:9.375;" x1="4057.0313" x2="4877.3438" y1="5980.8838" y2="5980.8838"/><text fill="#000000" font-family="sans-serif" font-size="65.625" lengthAdjust="spacing" textLength="271.875" x="4089.8438" y="5874.5453">"MC_08_</text><text fill="#000000" font-family="sans-serif" font-size="65.625" lengthAdjust="spacing" textLength="18.75" x="4089.8438" y="5957.0892"> </text><text fill="#000000" font-family="sans-serif" font-size="65.625" lengthAdjust="spacing" textLength="398.4375" x="4108.5938" y="5957.0892">RatingFailed"</text><path d="M4926.5625,6041.8213 L4926.5625,6416.8213 L5432.8125,6416.8213 L5432.8125,6088.6963 L5385.9375,6041.8213 L4926.5625,6041.8213 " fill="#FEFFDD" style="stroke:#181818;stroke-width:2.34375;"/><path d="M5385.9375,6041.8213 L5385.9375,6088.6963 L5432.8125,6088.6963 L5385.9375,6041.8213 " fill="#FEFFDD" style="stroke:#181818;stroke-width:2.34375;"/><text fill="#FF0000" font-family="sans-serif" font-size="65.625" font-weight="bold" lengthAdjust="spacing" textLength="295.3125" x="4954.6875" y="6133.3832">FAILURE:</text><text fill="#000000" font-family="sans-serif" font-size="65.625" lengthAdjust="spacing" textLength="18.75" x="5250" y="6133.3832"> </text><text fill="#000000" font-family="sans-serif" font-size="65.625" lengthAdjust="spacing" textLength="370.3125" x="4973.4375" y="6215.9271">Rating failed</text><text fill="#000000" font-family="sans-serif" font-size="65.625" lengthAdjust="spacing" textLength="332.8125" x="4973.4375" y="6298.4711">or premium</text><text fill="#000000" font-family="sans-serif" font-size="65.625" lengthAdjust="spacing" textLength="276.5625" x="4973.4375" y="6381.015">mismatch</text><line style="stroke:#181818;stroke-width:9.375;" x1="4057.0313" x2="4253.9063" y1="6635.5225" y2="6635.5225"/><line style="stroke:#181818;stroke-width:9.375;" x1="4253.9063" x2="4253.9063" y1="6635.5225" y2="6696.46"/><line style="stroke:#181818;stroke-width:9.375;" x1="4061.7188" x2="4253.9063" y1="6696.46" y2="6696.46"/><polygon fill="#181818" points="4108.5938,6677.71,4061.7188,6696.46,4108.5938,6715.21,4089.8438,6696.46" style="stroke:#181818;stroke-width:4.6875;"/><text fill="#000000" font-family="sans-serif" font-size="65.625" lengthAdjust="spacing" textLength="271.875" x="4089.8438" y="6529.184">"MC_07_</text><text fill="#000000" font-family="sans-serif" font-size="65.625" lengthAdjust="spacing" textLength="18.75" x="4089.8438" y="6611.7279"> </text><text fill="#000000" font-family="sans-serif" font-size="65.625" lengthAdjust="spacing" textLength="534.375" x="4108.5938" y="6611.7279">RatingCompleted"</text><line style="stroke:#181818;stroke-width:9.375;" x1="4057.0313" x2="4253.9063" y1="6927.1729" y2="6927.1729"/><line style="stroke:#181818;stroke-width:9.375;" x1="4253.9063" x2="4253.9063" y1="6927.1729" y2="6988.1104"/><line style="stroke:#181818;stroke-width:9.375;" x1="4061.7188" x2="4253.9063" y1="6988.1104" y2="6988.1104"/><polygon fill="#181818" points="4108.5938,6969.3604,4061.7188,6988.1104,4108.5938,7006.8604,4089.8438,6988.1104" style="stroke:#181818;stroke-width:4.6875;"/><text fill="#000000" font-family="sans-serif" font-size="65.625" lengthAdjust="spacing" textLength="271.875" x="4089.8438" y="6820.8344">"MC_09_</text><text fill="#000000" font-family="sans-serif" font-size="65.625" lengthAdjust="spacing" textLength="18.75" x="4089.8438" y="6903.3783"> </text><text fill="#000000" font-family="sans-serif" font-size="65.625" lengthAdjust="spacing" textLength="717.1875" x="4108.5938" y="6903.3783">AttachFormsCompleted"</text><polygon fill="#181818" points="4849.2188,7282.6172,4896.0938,7301.3672,4849.2188,7320.1172,4867.9688,7301.3672" style="stroke:#181818;stroke-width:4.6875;"/><line style="stroke:#181818;stroke-width:9.375;" x1="4057.0313" x2="4877.3438" y1="7301.3672" y2="7301.3672"/><text fill="#000000" font-family="sans-serif" font-size="65.625" lengthAdjust="spacing" textLength="271.875" x="4089.8438" y="7112.4847">"MC_10_</text><text fill="#000000" font-family="sans-serif" font-size="65.625" lengthAdjust="spacing" textLength="18.75" x="4089.8438" y="7195.0287"> </text><text fill="#000000" font-family="sans-serif" font-size="65.625" lengthAdjust="spacing" textLength="375" x="4108.5938" y="7195.0287">AttachForms</text><text fill="#000000" font-family="sans-serif" font-size="65.625" lengthAdjust="spacing" textLength="18.75" x="4089.8438" y="7277.5726"> </text><text fill="#000000" font-family="sans-serif" font-size="65.625" lengthAdjust="spacing" textLength="206.25" x="4108.5938" y="7277.5726">Failed"</text><path d="M4926.5625,7362.3047 L4926.5625,7652.9297 L5451.5625,7652.9297 L5451.5625,7409.1797 L5404.6875,7362.3047 L4926.5625,7362.3047 " fill="#FEFFDD" style="stroke:#181818;stroke-width:2.34375;"/><path d="M5404.6875,7362.3047 L5404.6875,7409.1797 L5451.5625,7409.1797 L5404.6875,7362.3047 " fill="#FEFFDD" style="stroke:#181818;stroke-width:2.34375;"/><text fill="#FF0000" font-family="sans-serif" font-size="65.625" font-weight="bold" lengthAdjust="spacing" textLength="295.3125" x="4954.6875" y="7453.8666">FAILURE:</text><text fill="#000000" font-family="sans-serif" font-size="65.625" lengthAdjust="spacing" textLength="18.75" x="5250" y="7453.8666"> </text><text fill="#000000" font-family="sans-serif" font-size="65.625" lengthAdjust="spacing" textLength="389.0625" x="4973.4375" y="7536.4105">Forms attach</text><text fill="#000000" font-family="sans-serif" font-size="65.625" lengthAdjust="spacing" textLength="159.375" x="4973.4375" y="7618.9545">failed</text><polygon fill="#181818" points="4849.2188,7937.2559,4896.0938,7956.0059,4849.2188,7974.7559,4867.9688,7956.0059" style="stroke:#181818;stroke-width:4.6875;"/><line style="stroke:#181818;stroke-width:9.375;" x1="4057.0313" x2="4877.3438" y1="7956.0059" y2="7956.0059"/><text fill="#000000" font-family="sans-serif" font-size="65.625" lengthAdjust="spacing" textLength="271.875" x="4089.8438" y="7767.1234">"MC_11_</text><text fill="#000000" font-family="sans-serif" font-size="65.625" lengthAdjust="spacing" textLength="18.75" x="4089.8438" y="7849.6674"> </text><text fill="#000000" font-family="sans-serif" font-size="65.625" lengthAdjust="spacing" textLength="375" x="4108.5938" y="7849.6674">AttachForms</text><text fill="#000000" font-family="sans-serif" font-size="65.625" lengthAdjust="spacing" textLength="18.75" x="4089.8438" y="7932.2113"> </text><text fill="#000000" font-family="sans-serif" font-size="65.625" lengthAdjust="spacing" textLength="300" x="4108.5938" y="7932.2113">NotMatch"</text><path d="M4926.5625,8016.9434 L4926.5625,8227.8809 L5592.1875,8227.8809 L5592.1875,8063.8184 L5545.3125,8016.9434 L4926.5625,8016.9434 " fill="#FEFFDD" style="stroke:#181818;stroke-width:2.34375;"/><path d="M5545.3125,8016.9434 L5545.3125,8063.8184 L5592.1875,8063.8184 L5545.3125,8016.9434 " fill="#FEFFDD" style="stroke:#181818;stroke-width:2.34375;"/><text fill="#FF0000" font-family="sans-serif" font-size="65.625" font-weight="bold" lengthAdjust="spacing" textLength="295.3125" x="4954.6875" y="8108.5052">FAILURE:</text><text fill="#000000" font-family="sans-serif" font-size="65.625" lengthAdjust="spacing" textLength="18.75" x="5250" y="8108.5052"> </text><text fill="#000000" font-family="sans-serif" font-size="65.625" lengthAdjust="spacing" textLength="548.4375" x="4973.4375" y="8191.0492">Forms don't match</text><polygon fill="#181818" points="4849.2188,8426.8066,4896.0938,8445.5566,4849.2188,8464.3066,4867.9688,8445.5566" style="stroke:#181818;stroke-width:4.6875;"/><line style="stroke:#181818;stroke-width:9.375;" x1="4057.0313" x2="4877.3438" y1="8445.5566" y2="8445.5566"/><text fill="#000000" font-family="sans-serif" font-size="65.625" lengthAdjust="spacing" textLength="271.875" x="4089.8438" y="8339.2181">"MC_13_</text><text fill="#000000" font-family="sans-serif" font-size="65.625" lengthAdjust="spacing" textLength="18.75" x="4089.8438" y="8421.7621"> </text><text fill="#000000" font-family="sans-serif" font-size="65.625" lengthAdjust="spacing" textLength="717.1875" x="4108.5938" y="8421.7621">IssuePreRenewalFailed"</text><path d="M4926.5625,8506.4941 L4926.5625,8797.1191 L5418.75,8797.1191 L5418.75,8553.3691 L5371.875,8506.4941 L4926.5625,8506.4941 " fill="#FEFFDD" style="stroke:#181818;stroke-width:2.34375;"/><path d="M5371.875,8506.4941 L5371.875,8553.3691 L5418.75,8553.3691 L5371.875,8506.4941 " fill="#FEFFDD" style="stroke:#181818;stroke-width:2.34375;"/><text fill="#FF0000" font-family="sans-serif" font-size="65.625" font-weight="bold" lengthAdjust="spacing" textLength="295.3125" x="4954.6875" y="8598.056">FAILURE:</text><text fill="#000000" font-family="sans-serif" font-size="65.625" lengthAdjust="spacing" textLength="18.75" x="5250" y="8598.056"> </text><text fill="#000000" font-family="sans-serif" font-size="65.625" lengthAdjust="spacing" textLength="356.25" x="4973.4375" y="8680.6">Pre-renewal</text><text fill="#000000" font-family="sans-serif" font-size="65.625" lengthAdjust="spacing" textLength="159.375" x="4973.4375" y="8763.1439">failed</text><polygon fill="#181818" points="4849.2188,9081.4453,4896.0938,9100.1953,4849.2188,9118.9453,4867.9688,9100.1953" style="stroke:#181818;stroke-width:4.6875;"/><line style="stroke:#181818;stroke-width:9.375;" x1="4057.0313" x2="4877.3438" y1="9100.1953" y2="9100.1953"/><text fill="#000000" font-family="sans-serif" font-size="65.625" lengthAdjust="spacing" textLength="271.875" x="4089.8438" y="8911.3129">"MC_12_</text><text fill="#000000" font-family="sans-serif" font-size="65.625" lengthAdjust="spacing" textLength="18.75" x="4089.8438" y="8993.8568"> </text><text fill="#000000" font-family="sans-serif" font-size="65.625" lengthAdjust="spacing" textLength="510.9375" x="4108.5938" y="8993.8568">IssuePreRenewal</text><text fill="#000000" font-family="sans-serif" font-size="65.625" lengthAdjust="spacing" textLength="18.75" x="4089.8438" y="9076.4008"> </text><text fill="#000000" font-family="sans-serif" font-size="65.625" lengthAdjust="spacing" textLength="342.1875" x="4108.5938" y="9076.4008">Completed"</text><path d="M4926.5625,9161.1328 L4926.5625,9451.7578 L5418.75,9451.7578 L5418.75,9208.0078 L5371.875,9161.1328 L4926.5625,9161.1328 " fill="#FEFFDD" style="stroke:#181818;stroke-width:2.34375;"/><path d="M5371.875,9161.1328 L5371.875,9208.0078 L5418.75,9208.0078 L5371.875,9161.1328 " fill="#FEFFDD" style="stroke:#181818;stroke-width:2.34375;"/><text fill="#008000" font-family="sans-serif" font-size="65.625" font-weight="bold" lengthAdjust="spacing" textLength="328.125" x="4954.6875" y="9252.6947">SUCCESS:</text><text fill="#000000" font-family="sans-serif" font-size="65.625" lengthAdjust="spacing" textLength="18.75" x="5282.8125" y="9252.6947"> </text><text fill="#000000" font-family="sans-serif" font-size="65.625" lengthAdjust="spacing" textLength="356.25" x="4973.4375" y="9335.2386">Pre-renewal</text><text fill="#000000" font-family="sans-serif" font-size="65.625" lengthAdjust="spacing" textLength="304.6875" x="4973.4375" y="9417.7826">completed</text><polygon fill="#181818" points="4849.2188,9653.54,4896.0938,9672.29,4849.2188,9691.04,4867.9688,9672.29" style="stroke:#181818;stroke-width:4.6875;"/><line style="stroke:#181818;stroke-width:9.375;" x1="4010.1563" x2="4877.3438" y1="9672.29" y2="9672.29"/><text fill="#000000" font-family="sans-serif" font-size="65.625" lengthAdjust="spacing" textLength="248.4375" x="4042.9688" y="9565.9515">MC_99_</text><text fill="#000000" font-family="sans-serif" font-size="65.625" lengthAdjust="spacing" textLength="18.75" x="4042.9688" y="9648.4955"> </text><text fill="#000000" font-family="sans-serif" font-size="65.625" lengthAdjust="spacing" textLength="600" x="4061.7188" y="9648.4955">FailedWithException</text><path d="M4926.5625,9733.2275 L4926.5625,9944.165 L5582.8125,9944.165 L5582.8125,9780.1025 L5535.9375,9733.2275 L4926.5625,9733.2275 " fill="#FEFFDD" style="stroke:#181818;stroke-width:2.34375;"/><path d="M5535.9375,9733.2275 L5535.9375,9780.1025 L5582.8125,9780.1025 L5535.9375,9733.2275 " fill="#FEFFDD" style="stroke:#181818;stroke-width:2.34375;"/><text fill="#FF0000" font-family="sans-serif" font-size="65.625" font-weight="bold" lengthAdjust="spacing" textLength="295.3125" x="4954.6875" y="9824.7894">FAILURE:</text><text fill="#000000" font-family="sans-serif" font-size="65.625" lengthAdjust="spacing" textLength="18.75" x="5250" y="9824.7894"> </text><text fill="#000000" font-family="sans-serif" font-size="65.625" lengthAdjust="spacing" textLength="539.0625" x="4973.4375" y="9907.3334">General exception</text><text fill="#888888" font-family="sans-serif" font-size="46.875" lengthAdjust="spacing" textLength="923.4375" x="2343.75" y="10247.5616">Generated 2025-06-10 - Full size diagram</text><!--SRC=[hLTRRzis57xNho0y36aVijhkPMkG6b3KE70HjbdihXWm8A2bOvkBH6eaDSVxzJiaPPkw1DsG-C6so7FEzvsho1Eou2O7maH6TCfoBjPa9HN9cLg38XbdQyMAo3YXyvKKXcZ-3tmO3oVpdJPGa1ibKz2QJ7Ev9H-z_FahApc9h4KWev_UHb6axxae6MwIags1edqko6ZOMhzyCA04onEP8uljXXjeILn8bO4AzwCJCZUx0_Kb6BH15B2CBNdEpIwmeE6l2aGAiL9okzZmz5vOykD0H84kfT10SSFY0Jhcn8bHLSYcO0-rp1n3GiR3OG_GbP9LUI6ptGLBxzVu83BFtIWcDCg2C85QLdBokc4eWnMhSZF5W3gOqPj6G9JXAI-P20JU1G8kSOUjyT06woEik01YDX3gQtAAIme0_SBCQ9TTJRRSREfrRPW1JO2bcoXG98Ca9ZF13MVvW31DadZMsLzORpdwMaiikXAW2YuE9gPHKo9E6XXnCkliDp7YPD6L237Yf8r1cnYqZK7R6BIDGLiOr6AS45S4tO0lTtMOewLym21WrKdibxWiSvuomwKWBvBuvO3ySCtN6tEHO_cHq8GBTNjbqLcPHe3jZHYH1uhJ5EiGTn2mAh1NNiJ90UKAKorQ9coqsokBpaeRXdAS1SwB8n0z0lqEENPMomhj8D4E4WsHRE_ZdWlkojfZgU5_Ow6wsE0sbbOueY9S9gSJ6wSpShcuzkgGXNgB217nnygXesUsFk-6G_A787UeSfV8eim1bGOeby4ZcXZtMdD43gfJnlDUFKA4nB_AHeR8bTVs0pUry-A3WcnolfnCuzdrrzlBi_DNoqazPgrnwmayG5gvUEF2oW7rqXdVuNvT0v-hOWaAdodN6YUe9VdyxBx1SWufAJo6NM5r2NAnaf5D4tPd8qq7U5jfY8y_rWlgqX4drWiNr2zv5bjH7FD93anqWkih5IlOPtDQgu-S-ZuA4iSdJcQtTdFzQuNEperKEDflGPj1ntzdvp_wl-ysjE0IOu68dR0UuEZRaTphHyabKi4K1pjifRgt2pFiB9n9AVIw_NJM26697rYdIC0bZ3wMCDkmr8VRPuiUmet55VHEGuFORwyphNLyXcya3iFT9oq5dWqKwjGjH3hkqUH_5UMd-PVFP8Msx0Dusq7RqB3Ww24f7Jg-u5hyhVnR9_yRdgaoDmKl7r8exP-d4Z-QTA_aIlVIVHFGtNT8dFrPwPfnH-5TZqA2foWdtvUVNvp2BJ8Hw-DSUv9htbYT1Rk01wLIGS6hmZxX02cOmUD77_-V0pgD2Mq_VGhlVPSPWmUQgLI5RcYrtHqDs-BsyPdyzlQOinrCxnuMepuME2AeZSipySYaE374HxeRlZqJtmyphIkuKJWd1MnP_apnG8EdobjiXEDnDkC-DdvY1adz3gcrFVjOMlElIN8vdt-7Lhet_HWp9FRULvcFopSyJ3_R6BX28Wg9mC5W50Kl03jKMu_sDPjbECkblI2vaprUvcp3sTUmAjnCYUhjuB8t6auy6BfAViJH0oy6E_oSKdgQPOENU7EOLddkXFTNnlqLy5y0]--></g></svg>