<?xml version="1.0" encoding="us-ascii" standalone="no"?><svg xmlns="http://www.w3.org/2000/svg" xmlns:xlink="http://www.w3.org/1999/xlink" contentStyleType="text/css" height="1585px" preserveAspectRatio="none" style="width:796px;height:1585px;background:#FFFFFF;" version="1.1" viewBox="0 0 796 1585" width="796px" zoomAndPan="magnify"><defs/><g><rect fill="none" height="45.2188" id="_title" style="stroke:#FF0000;stroke-width:2.0;" width="234" x="280" y="10"/><text fill="#000000" font-family="sans-serif" font-size="14" font-weight="bold" lengthAdjust="spacing" textLength="200" x="295" y="29.5332">Data Migration Process Flow</text><text fill="#000000" font-family="sans-serif" font-size="14" font-weight="bold" lengthAdjust="spacing" textLength="220" x="289" y="47.1426">CAPS To PAT Migration Process</text><rect fill="#FFFFFF" height="1323.6016" style="stroke:#181818;stroke-width:1.0;" width="10" x="182.5" y="171.1797"/><rect fill="#FFFFFF" height="945.3828" style="stroke:#181818;stroke-width:1.0;" width="10" x="633.5" y="424.6406"/><rect fill="#FFFFFF" height="30.3516" style="stroke:#181818;stroke-width:1.0;" width="10" x="638.5" y="859.5625"/><rect fill="#FFFFFF" height="1062.4375" style="stroke:#181818;stroke-width:1.0;" width="10" x="728" y="307.5859"/><rect fill="none" height="48.7031" style="stroke:#000000;stroke-width:1.5;" width="228.5" x="20" y="229.5313"/><rect fill="none" height="109.4063" style="stroke:#000000;stroke-width:1.5;" width="656" x="20" y="530.6953"/><rect fill="none" height="461.1094" style="stroke:#000000;stroke-width:1.5;" width="676" x="10" y="818.8594"/><rect fill="none" height="79.0547" style="stroke:#000000;stroke-width:1.5;" width="656" x="20" y="1026.3203"/><line style="stroke:#181818;stroke-width:0.5;stroke-dasharray:5.0,5.0;" x1="47" x2="47" y1="138.8281" y2="1503.7813"/><line style="stroke:#181818;stroke-width:0.5;stroke-dasharray:5.0,5.0;" x1="187.5" x2="187.5" y1="138.8281" y2="1503.7813"/><line style="stroke:#181818;stroke-width:0.5;stroke-dasharray:5.0,5.0;" x1="638" x2="638" y1="138.8281" y2="1503.7813"/><line style="stroke:#181818;stroke-width:0.5;stroke-dasharray:5.0,5.0;" x1="733" x2="733" y1="138.8281" y2="1503.7813"/><text fill="#000000" font-family="sans-serif" font-size="14" lengthAdjust="spacing" textLength="29" x="30" y="135.752">User</text><ellipse cx="47.5" cy="69.7188" fill="#E2E2F0" rx="8" ry="8" style="stroke:#181818;stroke-width:0.5;"/><path d="M47.5,77.7188 L47.5,104.7188 M34.5,85.7188 L60.5,85.7188 M47.5,104.7188 L34.5,119.7188 M47.5,104.7188 L60.5,119.7188 " fill="none" style="stroke:#181818;stroke-width:0.5;"/><text fill="#000000" font-family="sans-serif" font-size="14" lengthAdjust="spacing" textLength="29" x="30" y="1517.3145">User</text><ellipse cx="47.5" cy="1528.8906" fill="#E2E2F0" rx="8" ry="8" style="stroke:#181818;stroke-width:0.5;"/><path d="M47.5,1536.8906 L47.5,1563.8906 M34.5,1544.8906 L60.5,1544.8906 M47.5,1563.8906 L34.5,1578.8906 M47.5,1563.8906 L60.5,1578.8906 " fill="none" style="stroke:#181818;stroke-width:0.5;"/><rect fill="#E2E2F0" height="31.6094" rx="2.5" ry="2.5" style="stroke:#181818;stroke-width:0.5;" width="102" x="136.5" y="106.2188"/><text fill="#000000" font-family="sans-serif" font-size="14" lengthAdjust="spacing" textLength="88" x="143.5" y="127.752">Main Program</text><rect fill="#E2E2F0" height="31.6094" rx="2.5" ry="2.5" style="stroke:#181818;stroke-width:0.5;" width="102" x="136.5" y="1502.7813"/><text fill="#000000" font-family="sans-serif" font-size="14" lengthAdjust="spacing" textLength="88" x="143.5" y="1524.3145">Main Program</text><rect fill="#E2E2F0" height="31.6094" rx="2.5" ry="2.5" style="stroke:#181818;stroke-width:0.5;" width="55" x="611" y="106.2188"/><text fill="#000000" font-family="sans-serif" font-size="14" lengthAdjust="spacing" textLength="41" x="618" y="127.752">Helper</text><rect fill="#E2E2F0" height="31.6094" rx="2.5" ry="2.5" style="stroke:#181818;stroke-width:0.5;" width="55" x="611" y="1502.7813"/><text fill="#000000" font-family="sans-serif" font-size="14" lengthAdjust="spacing" textLength="41" x="618" y="1524.3145">Helper</text><rect fill="#E2E2F0" height="31.6094" rx="2.5" ry="2.5" style="stroke:#181818;stroke-width:0.5;" width="114" x="676" y="106.2188"/><text fill="#000000" font-family="sans-serif" font-size="14" lengthAdjust="spacing" textLength="100" x="683" y="127.752">ServiceProvider</text><rect fill="#E2E2F0" height="31.6094" rx="2.5" ry="2.5" style="stroke:#181818;stroke-width:0.5;" width="114" x="676" y="1502.7813"/><text fill="#000000" font-family="sans-serif" font-size="14" lengthAdjust="spacing" textLength="100" x="683" y="1524.3145">ServiceProvider</text><rect fill="#FFFFFF" height="1323.6016" style="stroke:#181818;stroke-width:1.0;" width="10" x="182.5" y="171.1797"/><rect fill="#FFFFFF" height="945.3828" style="stroke:#181818;stroke-width:1.0;" width="10" x="633.5" y="424.6406"/><rect fill="#FFFFFF" height="30.3516" style="stroke:#181818;stroke-width:1.0;" width="10" x="638.5" y="859.5625"/><rect fill="#FFFFFF" height="1062.4375" style="stroke:#181818;stroke-width:1.0;" width="10" x="728" y="307.5859"/><polygon fill="#0000FF" points="170.5,167.1797,180.5,171.1797,170.5,175.1797,174.5,171.1797" style="stroke:#0000FF;stroke-width:1.0;"/><line style="stroke:#0000FF;stroke-width:2.0;stroke-dasharray:2.0,2.0;" x1="47.5" x2="176.5" y1="171.1797" y2="171.1797"/><text fill="#000000" font-family="sans-serif" font-size="13" font-weight="bold" lengthAdjust="spacing" textLength="7" x="54.5" y="166.3232">1</text><text fill="#000000" font-family="sans-serif" font-size="13" lengthAdjust="spacing" textLength="84" x="65.5" y="166.3232">Start with args</text><line style="stroke:#0000FF;stroke-width:2.0;stroke-dasharray:2.0,2.0;" x1="192.5" x2="234.5" y1="201.5313" y2="201.5313"/><line style="stroke:#0000FF;stroke-width:2.0;stroke-dasharray:2.0,2.0;" x1="234.5" x2="234.5" y1="201.5313" y2="214.5313"/><line style="stroke:#0000FF;stroke-width:2.0;stroke-dasharray:2.0,2.0;" x1="193.5" x2="234.5" y1="214.5313" y2="214.5313"/><polygon fill="#0000FF" points="203.5,210.5313,193.5,214.5313,203.5,218.5313,199.5,214.5313" style="stroke:#0000FF;stroke-width:1.0;"/><text fill="#000000" font-family="sans-serif" font-size="13" font-weight="bold" lengthAdjust="spacing" textLength="7" x="199.5" y="196.6748">2</text><text fill="#000000" font-family="sans-serif" font-size="13" lengthAdjust="spacing" textLength="122" x="210.5" y="196.6748">Create ParameterInfo</text><path d="M20,229.5313 L81,229.5313 L81,237.8828 L71,247.8828 L20,247.8828 L20,229.5313 " fill="#EEEEEE" style="stroke:#000000;stroke-width:1.5;"/><rect fill="none" height="48.7031" style="stroke:#000000;stroke-width:1.5;" width="228.5" x="20" y="229.5313"/><text fill="#000000" font-family="sans-serif" font-size="13" font-weight="bold" lengthAdjust="spacing" textLength="16" x="35" y="244.0264">alt</text><text fill="#000000" font-family="sans-serif" font-size="11" font-weight="bold" lengthAdjust="spacing" textLength="102" x="96" y="242.9502">[ShowHelp is true]</text><polygon fill="#008000" points="58.5,266.2344,48.5,270.2344,58.5,274.2344,54.5,270.2344" style="stroke:#008000;stroke-width:1.0;"/><line style="stroke:#008000;stroke-width:2.0;stroke-dasharray:2.0,2.0;" x1="52.5" x2="181.5" y1="270.2344" y2="270.2344"/><text fill="#000000" font-family="sans-serif" font-size="13" font-weight="bold" lengthAdjust="spacing" textLength="7" x="64.5" y="265.3779">3</text><text fill="#000000" font-family="sans-serif" font-size="13" lengthAdjust="spacing" textLength="93" x="75.5" y="265.3779">Return Success</text><polygon fill="#0000FF" points="716,303.5859,726,307.5859,716,311.5859,720,307.5859" style="stroke:#0000FF;stroke-width:1.0;"/><line style="stroke:#0000FF;stroke-width:2.0;stroke-dasharray:2.0,2.0;" x1="192.5" x2="722" y1="307.5859" y2="307.5859"/><text fill="#000000" font-family="sans-serif" font-size="13" font-weight="bold" lengthAdjust="spacing" textLength="7" x="199.5" y="302.7295">4</text><text fill="#000000" font-family="sans-serif" font-size="13" lengthAdjust="spacing" textLength="358" x="210.5" y="302.7295">AppSetup(IsBenchmark, EnvironmentName, OnlyPreRenewal)</text><line style="stroke:#0000FF;stroke-width:2.0;stroke-dasharray:2.0,2.0;" x1="192.5" x2="234.5" y1="337.9375" y2="337.9375"/><line style="stroke:#0000FF;stroke-width:2.0;stroke-dasharray:2.0,2.0;" x1="234.5" x2="234.5" y1="337.9375" y2="350.9375"/><line style="stroke:#0000FF;stroke-width:2.0;stroke-dasharray:2.0,2.0;" x1="193.5" x2="234.5" y1="350.9375" y2="350.9375"/><polygon fill="#0000FF" points="203.5,346.9375,193.5,350.9375,203.5,354.9375,199.5,350.9375" style="stroke:#0000FF;stroke-width:1.0;"/><text fill="#000000" font-family="sans-serif" font-size="13" font-weight="bold" lengthAdjust="spacing" textLength="7" x="199.5" y="333.0811">5</text><text fill="#000000" font-family="sans-serif" font-size="13" lengthAdjust="spacing" textLength="107" x="210.5" y="333.0811">Set executionGuid</text><line style="stroke:#0000FF;stroke-width:2.0;stroke-dasharray:2.0,2.0;" x1="192.5" x2="234.5" y1="381.2891" y2="381.2891"/><line style="stroke:#0000FF;stroke-width:2.0;stroke-dasharray:2.0,2.0;" x1="234.5" x2="234.5" y1="381.2891" y2="394.2891"/><line style="stroke:#0000FF;stroke-width:2.0;stroke-dasharray:2.0,2.0;" x1="193.5" x2="234.5" y1="394.2891" y2="394.2891"/><polygon fill="#0000FF" points="203.5,390.2891,193.5,394.2891,203.5,398.2891,199.5,394.2891" style="stroke:#0000FF;stroke-width:1.0;"/><text fill="#000000" font-family="sans-serif" font-size="13" font-weight="bold" lengthAdjust="spacing" textLength="7" x="199.5" y="376.4326">6</text><text fill="#000000" font-family="sans-serif" font-size="13" lengthAdjust="spacing" textLength="108" x="210.5" y="376.4326">Get FullRunLogger</text><polygon fill="#0000FF" points="716,420.6406,726,424.6406,716,428.6406,720,424.6406" style="stroke:#0000FF;stroke-width:1.0;"/><line style="stroke:#0000FF;stroke-width:2.0;stroke-dasharray:2.0,2.0;" x1="192.5" x2="722" y1="424.6406" y2="424.6406"/><text fill="#000000" font-family="sans-serif" font-size="13" font-weight="bold" lengthAdjust="spacing" textLength="7" x="199.5" y="419.7842">7</text><text fill="#000000" font-family="sans-serif" font-size="13" lengthAdjust="spacing" textLength="106" x="210.5" y="419.7842">Get Helper service</text><polygon fill="#FFA500" points="621.5,450.9922,631.5,454.9922,621.5,458.9922,625.5,454.9922" style="stroke:#FFA500;stroke-width:1.0;"/><line style="stroke:#FFA500;stroke-width:2.0;stroke-dasharray:2.0,2.0;" x1="192.5" x2="627.5" y1="454.9922" y2="454.9922"/><text fill="#000000" font-family="sans-serif" font-size="13" font-weight="bold" lengthAdjust="spacing" textLength="7" x="199.5" y="450.1357">8</text><text fill="#000000" font-family="sans-serif" font-size="13" lengthAdjust="spacing" textLength="199" x="210.5" y="450.1357">Step_NotifyBenchmarkIfApplicable</text><polygon fill="#FFA500" points="621.5,481.3438,631.5,485.3438,621.5,489.3438,625.5,485.3438" style="stroke:#FFA500;stroke-width:1.0;"/><line style="stroke:#FFA500;stroke-width:2.0;stroke-dasharray:2.0,2.0;" x1="192.5" x2="627.5" y1="485.3438" y2="485.3438"/><text fill="#000000" font-family="sans-serif" font-size="13" font-weight="bold" lengthAdjust="spacing" textLength="7" x="199.5" y="480.4873">9</text><text fill="#000000" font-family="sans-serif" font-size="13" lengthAdjust="spacing" textLength="138" x="210.5" y="480.4873">Step_NotifyEnvironment</text><polygon fill="#FFA500" points="621.5,511.6953,631.5,515.6953,621.5,519.6953,625.5,515.6953" style="stroke:#FFA500;stroke-width:1.0;"/><line style="stroke:#FFA500;stroke-width:2.0;stroke-dasharray:2.0,2.0;" x1="192.5" x2="627.5" y1="515.6953" y2="515.6953"/><text fill="#000000" font-family="sans-serif" font-size="13" font-weight="bold" lengthAdjust="spacing" textLength="14" x="199.5" y="510.8389">10</text><text fill="#000000" font-family="sans-serif" font-size="13" lengthAdjust="spacing" textLength="194" x="217.5" y="510.8389">Step_LogAzureConnectionDetails</text><path d="M20,530.6953 L81,530.6953 L81,539.0469 L71,549.0469 L20,549.0469 L20,530.6953 " fill="#EEEEEE" style="stroke:#000000;stroke-width:1.5;"/><rect fill="none" height="109.4063" style="stroke:#000000;stroke-width:1.5;" width="656" x="20" y="530.6953"/><text fill="#000000" font-family="sans-serif" font-size="13" font-weight="bold" lengthAdjust="spacing" textLength="16" x="35" y="545.1904">alt</text><text fill="#000000" font-family="sans-serif" font-size="11" font-weight="bold" lengthAdjust="spacing" textLength="186" x="96" y="544.1143">[Getpolicymigrationreport is true]</text><polygon fill="#FFA500" points="621.5,567.3984,631.5,571.3984,621.5,575.3984,625.5,571.3984" style="stroke:#FFA500;stroke-width:1.0;"/><line style="stroke:#FFA500;stroke-width:2.0;stroke-dasharray:2.0,2.0;" x1="192.5" x2="627.5" y1="571.3984" y2="571.3984"/><text fill="#000000" font-family="sans-serif" font-size="13" font-weight="bold" lengthAdjust="spacing" textLength="14" x="199.5" y="566.542">11</text><text fill="#000000" font-family="sans-serif" font-size="13" lengthAdjust="spacing" textLength="199" x="217.5" y="566.542">Step_CreatePolicyMigrationReport</text><polygon fill="#FFA500" points="621.5,597.75,631.5,601.75,621.5,605.75,625.5,601.75" style="stroke:#FFA500;stroke-width:1.0;"/><line style="stroke:#FFA500;stroke-width:2.0;stroke-dasharray:2.0,2.0;" x1="192.5" x2="627.5" y1="601.75" y2="601.75"/><text fill="#000000" font-family="sans-serif" font-size="13" font-weight="bold" lengthAdjust="spacing" textLength="14" x="199.5" y="596.8936">12</text><text fill="#000000" font-family="sans-serif" font-size="13" lengthAdjust="spacing" textLength="237" x="217.5" y="596.8936">Step_CreateHupeMigrationWeeklyReport</text><polygon fill="#008000" points="58.5,628.1016,48.5,632.1016,58.5,636.1016,54.5,632.1016" style="stroke:#008000;stroke-width:1.0;"/><line style="stroke:#008000;stroke-width:2.0;stroke-dasharray:2.0,2.0;" x1="52.5" x2="181.5" y1="632.1016" y2="632.1016"/><text fill="#000000" font-family="sans-serif" font-size="13" font-weight="bold" lengthAdjust="spacing" textLength="14" x="64.5" y="627.2451">13</text><text fill="#000000" font-family="sans-serif" font-size="13" lengthAdjust="spacing" textLength="93" x="82.5" y="627.2451">Return Success</text><polygon fill="#FFA500" points="621.5,665.4531,631.5,669.4531,621.5,673.4531,625.5,669.4531" style="stroke:#FFA500;stroke-width:1.0;"/><line style="stroke:#FFA500;stroke-width:2.0;stroke-dasharray:2.0,2.0;" x1="192.5" x2="627.5" y1="669.4531" y2="669.4531"/><text fill="#000000" font-family="sans-serif" font-size="13" font-weight="bold" lengthAdjust="spacing" textLength="14" x="199.5" y="664.5967">14</text><text fill="#000000" font-family="sans-serif" font-size="13" lengthAdjust="spacing" textLength="150" x="217.5" y="664.5967">Step_PerformETLProcess</text><polygon fill="#800080" points="203.5,695.8047,193.5,699.8047,203.5,703.8047,199.5,699.8047" style="stroke:#800080;stroke-width:1.0;"/><line style="stroke:#800080;stroke-width:2.0;stroke-dasharray:2.0,2.0;" x1="197.5" x2="632.5" y1="699.8047" y2="699.8047"/><text fill="#000000" font-family="sans-serif" font-size="13" font-weight="bold" lengthAdjust="spacing" textLength="14" x="209.5" y="694.9482">15</text><text fill="#000000" font-family="sans-serif" font-size="13" lengthAdjust="spacing" textLength="94" x="227.5" y="694.9482">Return ETL data</text><line style="stroke:#0000FF;stroke-width:2.0;stroke-dasharray:2.0,2.0;" x1="192.5" x2="234.5" y1="730.1563" y2="730.1563"/><line style="stroke:#0000FF;stroke-width:2.0;stroke-dasharray:2.0,2.0;" x1="234.5" x2="234.5" y1="730.1563" y2="743.1563"/><line style="stroke:#0000FF;stroke-width:2.0;stroke-dasharray:2.0,2.0;" x1="193.5" x2="234.5" y1="743.1563" y2="743.1563"/><polygon fill="#0000FF" points="203.5,739.1563,193.5,743.1563,203.5,747.1563,199.5,743.1563" style="stroke:#0000FF;stroke-width:1.0;"/><text fill="#000000" font-family="sans-serif" font-size="13" font-weight="bold" lengthAdjust="spacing" textLength="14" x="199.5" y="725.2998">16</text><text fill="#000000" font-family="sans-serif" font-size="13" lengthAdjust="spacing" textLength="185" x="217.5" y="725.2998">Store AgencyPoliciesFromCaps</text><polygon fill="#FFA500" points="621.5,769.5078,631.5,773.5078,621.5,777.5078,625.5,773.5078" style="stroke:#FFA500;stroke-width:1.0;"/><line style="stroke:#FFA500;stroke-width:2.0;stroke-dasharray:2.0,2.0;" x1="192.5" x2="627.5" y1="773.5078" y2="773.5078"/><text fill="#000000" font-family="sans-serif" font-size="13" font-weight="bold" lengthAdjust="spacing" textLength="14" x="199.5" y="768.6514">17</text><text fill="#000000" font-family="sans-serif" font-size="13" lengthAdjust="spacing" textLength="185" x="217.5" y="768.6514">Step_NotifyFullExtractionReport</text><polygon fill="#FFA500" points="621.5,799.8594,631.5,803.8594,621.5,807.8594,625.5,803.8594" style="stroke:#FFA500;stroke-width:1.0;"/><line style="stroke:#FFA500;stroke-width:2.0;stroke-dasharray:2.0,2.0;" x1="192.5" x2="627.5" y1="803.8594" y2="803.8594"/><text fill="#000000" font-family="sans-serif" font-size="13" font-weight="bold" lengthAdjust="spacing" textLength="14" x="199.5" y="799.0029">18</text><text fill="#000000" font-family="sans-serif" font-size="13" lengthAdjust="spacing" textLength="399" x="217.5" y="799.0029">Step_CreateFullExtractionReportByAgencyOrPolicyNumbers (async)</text><path d="M10,818.8594 L71,818.8594 L71,827.2109 L61,837.2109 L10,837.2109 L10,818.8594 " fill="#EEEEEE" style="stroke:#000000;stroke-width:1.5;"/><rect fill="none" height="461.1094" style="stroke:#000000;stroke-width:1.5;" width="676" x="10" y="818.8594"/><text fill="#000000" font-family="sans-serif" font-size="13" font-weight="bold" lengthAdjust="spacing" textLength="16" x="25" y="833.3545">alt</text><text fill="#000000" font-family="sans-serif" font-size="11" font-weight="bold" lengthAdjust="spacing" textLength="95" x="86" y="832.2783">[ETLDone is true]</text><polygon fill="#FFA500" points="626.5,855.5625,636.5,859.5625,626.5,863.5625,630.5,859.5625" style="stroke:#FFA500;stroke-width:1.0;"/><line style="stroke:#FFA500;stroke-width:2.0;stroke-dasharray:2.0,2.0;" x1="192.5" x2="632.5" y1="859.5625" y2="859.5625"/><text fill="#000000" font-family="sans-serif" font-size="13" font-weight="bold" lengthAdjust="spacing" textLength="14" x="199.5" y="854.7061">19</text><text fill="#000000" font-family="sans-serif" font-size="13" lengthAdjust="spacing" textLength="138" x="217.5" y="854.7061">Step_GetPoliciesToETL</text><polygon fill="#800080" points="203.5,885.9141,193.5,889.9141,203.5,893.9141,199.5,889.9141" style="stroke:#800080;stroke-width:1.0;"/><line style="stroke:#800080;stroke-width:2.0;stroke-dasharray:2.0,2.0;" x1="197.5" x2="632.5" y1="889.9141" y2="889.9141"/><text fill="#000000" font-family="sans-serif" font-size="13" font-weight="bold" lengthAdjust="spacing" textLength="14" x="209.5" y="885.0576">20</text><text fill="#000000" font-family="sans-serif" font-size="13" lengthAdjust="spacing" textLength="102" x="227.5" y="885.0576">Return etlPolicies</text><polygon fill="#FFA500" points="621.5,916.2656,631.5,920.2656,621.5,924.2656,625.5,920.2656" style="stroke:#FFA500;stroke-width:1.0;"/><line style="stroke:#FFA500;stroke-width:2.0;stroke-dasharray:2.0,2.0;" x1="192.5" x2="627.5" y1="920.2656" y2="920.2656"/><text fill="#000000" font-family="sans-serif" font-size="13" font-weight="bold" lengthAdjust="spacing" textLength="14" x="199.5" y="915.4092">21</text><text fill="#000000" font-family="sans-serif" font-size="13" lengthAdjust="spacing" textLength="242" x="217.5" y="915.4092">Step_RunValidation_WhenParameterIsOn</text><polygon fill="#FFA500" points="621.5,946.6172,631.5,950.6172,621.5,954.6172,625.5,950.6172" style="stroke:#FFA500;stroke-width:1.0;"/><line style="stroke:#FFA500;stroke-width:2.0;stroke-dasharray:2.0,2.0;" x1="192.5" x2="627.5" y1="950.6172" y2="950.6172"/><text fill="#000000" font-family="sans-serif" font-size="13" font-weight="bold" lengthAdjust="spacing" textLength="14" x="199.5" y="945.7607">22</text><text fill="#000000" font-family="sans-serif" font-size="13" lengthAdjust="spacing" textLength="247" x="217.5" y="945.7607">Step_CheckPoliciesAgainstTheAllowedSet</text><polygon fill="#800080" points="203.5,976.9688,193.5,980.9688,203.5,984.9688,199.5,980.9688" style="stroke:#800080;stroke-width:1.0;"/><line style="stroke:#800080;stroke-width:2.0;stroke-dasharray:2.0,2.0;" x1="197.5" x2="632.5" y1="980.9688" y2="980.9688"/><text fill="#000000" font-family="sans-serif" font-size="13" font-weight="bold" lengthAdjust="spacing" textLength="14" x="209.5" y="976.1123">23</text><text fill="#000000" font-family="sans-serif" font-size="13" lengthAdjust="spacing" textLength="144" x="227.5" y="976.1123">Return filtered etlPolicies</text><polygon fill="#FFA500" points="621.5,1007.3203,631.5,1011.3203,621.5,1015.3203,625.5,1011.3203" style="stroke:#FFA500;stroke-width:1.0;"/><line style="stroke:#FFA500;stroke-width:2.0;stroke-dasharray:2.0,2.0;" x1="192.5" x2="627.5" y1="1011.3203" y2="1011.3203"/><text fill="#000000" font-family="sans-serif" font-size="13" font-weight="bold" lengthAdjust="spacing" textLength="14" x="199.5" y="1006.4639">24</text><text fill="#000000" font-family="sans-serif" font-size="13" lengthAdjust="spacing" textLength="378" x="217.5" y="1006.4639">Step_PassPrerenewalFlagForAllConsumersSoThatTheyAreAware</text><path d="M20,1026.3203 L81,1026.3203 L81,1034.6719 L71,1044.6719 L20,1044.6719 L20,1026.3203 " fill="#EEEEEE" style="stroke:#000000;stroke-width:1.5;"/><rect fill="none" height="79.0547" style="stroke:#000000;stroke-width:1.5;" width="656" x="20" y="1026.3203"/><text fill="#000000" font-family="sans-serif" font-size="13" font-weight="bold" lengthAdjust="spacing" textLength="16" x="35" y="1040.8154">alt</text><text fill="#000000" font-family="sans-serif" font-size="11" font-weight="bold" lengthAdjust="spacing" textLength="218" x="96" y="1039.7393">[RunIssuesToResolveValidation is true]</text><polygon fill="#FFA500" points="621.5,1063.0234,631.5,1067.0234,621.5,1071.0234,625.5,1067.0234" style="stroke:#FFA500;stroke-width:1.0;"/><line style="stroke:#FFA500;stroke-width:2.0;stroke-dasharray:2.0,2.0;" x1="192.5" x2="627.5" y1="1067.0234" y2="1067.0234"/><text fill="#000000" font-family="sans-serif" font-size="13" font-weight="bold" lengthAdjust="spacing" textLength="14" x="199.5" y="1062.167">25</text><text fill="#000000" font-family="sans-serif" font-size="13" lengthAdjust="spacing" textLength="211" x="217.5" y="1062.167">Step_RunIssuesToResolveValidation</text><polygon fill="#008000" points="58.5,1093.375,48.5,1097.375,58.5,1101.375,54.5,1097.375" style="stroke:#008000;stroke-width:1.0;"/><line style="stroke:#008000;stroke-width:2.0;stroke-dasharray:2.0,2.0;" x1="52.5" x2="181.5" y1="1097.375" y2="1097.375"/><text fill="#000000" font-family="sans-serif" font-size="13" font-weight="bold" lengthAdjust="spacing" textLength="14" x="64.5" y="1092.5186">26</text><text fill="#000000" font-family="sans-serif" font-size="13" lengthAdjust="spacing" textLength="93" x="82.5" y="1092.5186">Return Success</text><polygon fill="#FFA500" points="621.5,1130.7266,631.5,1134.7266,621.5,1138.7266,625.5,1134.7266" style="stroke:#FFA500;stroke-width:1.0;"/><line style="stroke:#FFA500;stroke-width:2.0;stroke-dasharray:2.0,2.0;" x1="192.5" x2="627.5" y1="1134.7266" y2="1134.7266"/><text fill="#000000" font-family="sans-serif" font-size="13" font-weight="bold" lengthAdjust="spacing" textLength="14" x="199.5" y="1129.8701">27</text><text fill="#000000" font-family="sans-serif" font-size="13" lengthAdjust="spacing" textLength="315" x="217.5" y="1129.8701">Step_RunIssuesToResolveValidation_WhenFlagsAllow</text><polygon fill="#FFA500" points="621.5,1161.0781,631.5,1165.0781,621.5,1169.0781,625.5,1165.0781" style="stroke:#FFA500;stroke-width:1.0;"/><line style="stroke:#FFA500;stroke-width:2.0;stroke-dasharray:2.0,2.0;" x1="192.5" x2="627.5" y1="1165.0781" y2="1165.0781"/><text fill="#000000" font-family="sans-serif" font-size="13" font-weight="bold" lengthAdjust="spacing" textLength="14" x="199.5" y="1160.2217">28</text><text fill="#000000" font-family="sans-serif" font-size="13" lengthAdjust="spacing" textLength="340" x="217.5" y="1160.2217">Step_CompareNumberOfPoliciesTransactionCountsByLOB</text><polygon fill="#FFA500" points="621.5,1191.4297,631.5,1195.4297,621.5,1199.4297,625.5,1195.4297" style="stroke:#FFA500;stroke-width:1.0;"/><line style="stroke:#FFA500;stroke-width:2.0;stroke-dasharray:2.0,2.0;" x1="192.5" x2="627.5" y1="1195.4297" y2="1195.4297"/><text fill="#000000" font-family="sans-serif" font-size="13" font-weight="bold" lengthAdjust="spacing" textLength="14" x="199.5" y="1190.5732">29</text><text fill="#000000" font-family="sans-serif" font-size="13" lengthAdjust="spacing" textLength="254" x="217.5" y="1190.5732">Step_CreateExecutionStatus_WhenAllowed</text><polygon fill="#FFA500" points="621.5,1221.7813,631.5,1225.7813,621.5,1229.7813,625.5,1225.7813" style="stroke:#FFA500;stroke-width:1.0;"/><line style="stroke:#FFA500;stroke-width:2.0;stroke-dasharray:2.0,2.0;" x1="192.5" x2="627.5" y1="1225.7813" y2="1225.7813"/><text fill="#000000" font-family="sans-serif" font-size="13" font-weight="bold" lengthAdjust="spacing" textLength="14" x="199.5" y="1220.9248">30</text><text fill="#000000" font-family="sans-serif" font-size="13" lengthAdjust="spacing" textLength="187" x="217.5" y="1220.9248">Step_LogFinalSuccessMessage</text><line style="stroke:#000000;stroke-width:1.0;stroke-dasharray:2.0,2.0;" x1="10" x2="686" y1="1234.7813" y2="1234.7813"/><text fill="#000000" font-family="sans-serif" font-size="11" font-weight="bold" lengthAdjust="spacing" textLength="99" x="15" y="1246.2002">[ETLDone is false]</text><polygon fill="#FF0000" points="621.5,1267.9688,631.5,1271.9688,621.5,1275.9688,625.5,1271.9688" style="stroke:#FF0000;stroke-width:1.0;"/><line style="stroke:#FF0000;stroke-width:2.0;stroke-dasharray:2.0,2.0;" x1="192.5" x2="627.5" y1="1271.9688" y2="1271.9688"/><text fill="#000000" font-family="sans-serif" font-size="13" font-weight="bold" lengthAdjust="spacing" textLength="14" x="199.5" y="1267.1123">31</text><text fill="#000000" font-family="sans-serif" font-size="13" lengthAdjust="spacing" textLength="217" x="217.5" y="1267.1123">Step_LogErrorForPreRenewalPolicies</text><polygon fill="#FFA500" points="621.5,1305.3203,631.5,1309.3203,621.5,1313.3203,625.5,1309.3203" style="stroke:#FFA500;stroke-width:1.0;"/><line style="stroke:#FFA500;stroke-width:2.0;stroke-dasharray:2.0,2.0;" x1="192.5" x2="627.5" y1="1309.3203" y2="1309.3203"/><text fill="#000000" font-family="sans-serif" font-size="13" font-weight="bold" lengthAdjust="spacing" textLength="14" x="199.5" y="1304.4639">32</text><text fill="#000000" font-family="sans-serif" font-size="13" lengthAdjust="spacing" textLength="291" x="217.5" y="1304.4639">Step_DeleteTemporaryFilesFromMigrationProcess</text><polygon fill="#FFA500" points="621.5,1335.6719,631.5,1339.6719,621.5,1343.6719,625.5,1339.6719" style="stroke:#FFA500;stroke-width:1.0;"/><line style="stroke:#FFA500;stroke-width:2.0;stroke-dasharray:2.0,2.0;" x1="192.5" x2="627.5" y1="1339.6719" y2="1339.6719"/><text fill="#000000" font-family="sans-serif" font-size="13" font-weight="bold" lengthAdjust="spacing" textLength="14" x="199.5" y="1334.8154">33</text><text fill="#000000" font-family="sans-serif" font-size="13" lengthAdjust="spacing" textLength="191" x="217.5" y="1334.8154">Step_ProcessDailyValidationRun</text><polygon fill="#FFA500" points="626.5,1366.0234,636.5,1370.0234,626.5,1374.0234,630.5,1370.0234" style="stroke:#FFA500;stroke-width:1.0;"/><line style="stroke:#FFA500;stroke-width:2.0;stroke-dasharray:2.0,2.0;" x1="192.5" x2="632.5" y1="1370.0234" y2="1370.0234"/><text fill="#000000" font-family="sans-serif" font-size="13" font-weight="bold" lengthAdjust="spacing" textLength="14" x="199.5" y="1365.167">34</text><text fill="#000000" font-family="sans-serif" font-size="13" lengthAdjust="spacing" textLength="267" x="217.5" y="1365.167">Await step_completeFullExtractionReportTask</text><polygon fill="#008000" points="58.5,1396.375,48.5,1400.375,58.5,1404.375,54.5,1400.375" style="stroke:#008000;stroke-width:1.0;"/><line style="stroke:#008000;stroke-width:2.0;stroke-dasharray:2.0,2.0;" x1="52.5" x2="181.5" y1="1400.375" y2="1400.375"/><text fill="#000000" font-family="sans-serif" font-size="13" font-weight="bold" lengthAdjust="spacing" textLength="14" x="64.5" y="1395.5186">35</text><text fill="#000000" font-family="sans-serif" font-size="13" lengthAdjust="spacing" textLength="93" x="82.5" y="1395.5186">Return Success</text><path d="M197,1413.375 L197,1488.375 L467,1488.375 L467,1423.375 L457,1413.375 L197,1413.375 " fill="#FEFFDD" style="stroke:#181818;stroke-width:0.5;"/><path d="M457,1413.375 L457,1423.375 L467,1423.375 L457,1413.375 " fill="#FEFFDD" style="stroke:#181818;stroke-width:0.5;"/><text fill="#000000" font-family="sans-serif" font-size="13" lengthAdjust="spacing" textLength="114" x="203" y="1431.8701">Exception handling:</text><text fill="#000000" font-family="sans-serif" font-size="13" lengthAdjust="spacing" textLength="249" x="203" y="1448.2217">If any exception occurs during the process,</text><text fill="#000000" font-family="sans-serif" font-size="13" lengthAdjust="spacing" textLength="245" x="203" y="1464.5732">it will be published via ExceptionPublisher,</text><text fill="#000000" font-family="sans-serif" font-size="13" lengthAdjust="spacing" textLength="247" x="203" y="1480.9248">logged, and Error exit code will be returned</text><!--SRC=[hLPBR-Cs4BxhLqpJm-u2taCBz9930J-p1fBOiDtieIqMj3II25Eam8STzTVlaBGj9t6sKb431WHovflNDyFv05F9jW9X_NG7JFAAMQvaybEjML4nCFiY7c86LZjCaWyd1QQrEhGgu0oN1J1dbNJL5dLoyPcO7PSrqwm2owt0aT8PwfLoCeDVVhj-kobvkfDe3FnwNM2iXDAWCNjppT9TeJru53cKtEA5q4n9-yWgX9idr1cJx0PyNCCGaB6Dy87afDW6XtcEgRt02C8HVe9OhtVDI3XyBN0PGn9yWmcp31vueIFmKglKtyy4sVvBmdYuNCD6mNAuUIkL92orPF4FGpabCvQdl6RImiq3uq6A5AeRO0RymKkHBoXgrE4oVhwyNgFUynG9Oy-pezohioJnXk7pdpzlATR1Ledixy-_1rDm2sjBS73WjYHg5CQxolT4dEXA4gGkLGSPCoLU8emrUlcbpnzQr7EPguG92-jI7RpFm4ra8T3l15XeH7bs9dXu2okqJajOkpJa3MLsnGCl_of4KXtMzPgqwuzpCqAPbXNJkm6HVi-raXL6wWnW8KMprBX2YGScFhNXlabQXyZ98E0pfivN-yxnh8lI7IdDd10h9-zLKP2fZX5wnKW1CF6ozVv8ZJEKqamMBTXHpLSRws-FolAyEMTfdbFk14_zUEW3S97RRceKxl0Vft6ifAIsf9nDq38kV8CGNIY-Mf4VJNLg88sr8d9UeyyF3KL6BWFOkHjN0Qmlo1TNundYA-9ED5U0UfFvXvQNg6cCLTFD_Mc07Ez9iNQw5kzHwsYH526ZUTM9mZIO48O5aQ492UDePbfLOrQRNdJob9u-MytIYsJtIFGr_L4J7LleMCl7y2mP-CXC8zDFaJOKxKH9xCyIujifueqYbA3vkgFyMR_ienKdsA2TuJNCxcxId7XYWcU1WT- -bYZRIMiMiWUXIqnt9zU61QaOkobnAEWDmuncsNy8DkU2_A0jutNKtOZEZA5XhECmdWbMp9GcVsX065THfTTgKpBlP3FKE3mmZMtoVEqfDtDZd2_W2eqIUsnJzO8GVRBzBk8Rf2vjx-Lzw_zFFWG2-4oPKBSUrLSLBGuOMsYHdvbFEYRst9XMBsj6pVrYr7TAJa-F86qJrfdWv95NtQ7eUPXnoSGnSm_qPmKcA0nUDddEwE05Al7lVSWfBNIQQDK- -cUUTf_84nJKRnkiQ2entSouY5Fo_3AS1dKtsaVX2JrzJLjPglg_gbCBS4kxBe6aL4_lrBMvkM5cboHl1y_5oRlhJXTE9r8HXEP5QK7bSLC4c3wdM8VEAvdC_3P-IwVpdFRnXjQaqwLAKqSpF7FQx-ksHAXZFWOapVqgAWHiwTHj1VTJ1_QSjU3Bux7sui8lKDc0B6GG2ars229L6PvnTF2TY4Zb1kzuyXq0]--></g></svg>